<?xml version="1.0" encoding="utf-8"?>
<!-- Generator: Adobe Illustrator 28.0.0, SVG Export Plug-In . SVG Version: 6.00 Build 0)  -->
<svg version="1.1" id="Layer_1" xmlns="http://www.w3.org/2000/svg" xmlns:xlink="http://www.w3.org/1999/xlink" x="0px" y="0px"
	 viewBox="0 0 64 64" style="enable-background:new 0 0 64 64;" xml:space="preserve">
<style type="text/css">
	.st0{fill:#59B6F8;}
	.st1{fill:#232F3E;}
</style>
<path class="st0" d="M51.9998,33.1133c0-0.3733-0.2-0.7133-0.5266-0.8933l-16.14-8.06c-0.08-0.0467,2.2066,0.8333,2.1133,0.8333
	L35.0398,24.08c-0.3066-0.1734-0.6866-0.1734-0.9933,0l-13.5267,7.54c-0.3266,0.18-0.5266,0.5266-0.5266,0.8933v13.3
	c0,0.3733,0.2,0.7133,0.5266,0.8933l16.9467,9.16c0.3067,0.1734,0.6867,0.1734,0.9933,0l13.0134-7.54
	c0.3266-0.18,0.5266-0.52,0.5266-0.8933V33.1066V33.1133z"/>
<path class="st0" d="M46.673,18.2333c0-0.24-0.1267-0.46-0.34-0.58l-10.4733-5.7534c-0.2-0.1133-0.44-0.1133-0.64,0l-9.5467,5.3667
	c-0.2067,0.12-0.34,0.34-0.34,0.58v9.2533c0,0.24,0.1333,0.46,0.34,0.58l10.94,5.9134c0.2,0.1133,0.44,0.1133,0.64,0l9.08-4.8667
	c0.2067-0.1133,0.34-0.34,0.34-0.5733V18.2333z"/>
<path class="st1" d="M49.2935,28.96c0,0-0.02-0.0533-0.0267-0.0866c-0.0266-0.08-0.0533-0.1534-0.0933-0.22
	c-0.0133-0.0267-0.0267-0.0534-0.04-0.0734c-0.0533-0.0866-0.12-0.1733-0.1933-0.2466c-0.0134-0.0067-0.02-0.02-0.0334-0.0267
	c-0.0666-0.0667-0.1466-0.12-0.2266-0.1667c-0.0134-0.0066-0.02-0.02-0.0334-0.0266l-4.64-2.54V15.3067c0,0,0-0.0333,0-0.0533
	c0-0.0467-0.0066-0.0934-0.0133-0.1467c0-0.04-0.0133-0.08-0.02-0.12c-0.0133-0.04-0.0267-0.0867-0.04-0.1267
	c-0.0133-0.04-0.0267-0.08-0.0467-0.12s-0.04-0.08-0.06-0.1133c-0.02-0.0333-0.04-0.0733-0.0666-0.1067
	c-0.0267-0.0333-0.0534-0.0666-0.0867-0.1066c-0.0267-0.0334-0.0533-0.06-0.0867-0.0867c-0.0333-0.0267-0.0666-0.0533-0.1-0.08
	c-0.0333-0.0267-0.0733-0.0533-0.1133-0.08c-0.0133-0.0067-0.0267-0.02-0.0467-0.0333L32.6602,8.1667
	c-0.4067-0.2267-0.9-0.2267-1.3,0l-10.6667,5.9667c0,0-0.0267,0.02-0.0467,0.0333c-0.04,0.0267-0.0733,0.0533-0.1133,0.08
	c-0.0333,0.0267-0.0667,0.0533-0.1,0.08s-0.06,0.06-0.0867,0.0867c-0.0266,0.0333-0.06,0.0666-0.0866,0.1066
	c-0.0267,0.0334-0.0467,0.0667-0.0667,0.1067c-0.02,0.04-0.0467,0.0733-0.06,0.1133c-0.02,0.04-0.0333,0.08-0.0467,0.12
	c-0.0133,0.04-0.0266,0.08-0.04,0.1267c-0.0066,0.04-0.0133,0.08-0.02,0.12c-0.0066,0.0467-0.0133,0.0933-0.0133,0.1467
	c0,0.02,0,0.0333,0,0.0533v10.2867l-4.64,2.5266c0,0-0.02,0.02-0.0333,0.0267c-0.08,0.0467-0.16,0.1-0.2267,0.1667
	c-0.0133,0.0066-0.02,0.02-0.0333,0.0266c-0.0734,0.0734-0.14,0.16-0.1934,0.2467c-0.0133,0.0267-0.0266,0.0467-0.04,0.0733
	c-0.04,0.0734-0.0733,0.1467-0.0933,0.2267c-0.0067,0.0267-0.02,0.0533-0.0267,0.0867c-0.0266,0.1066-0.0466,0.2066-0.0466,0.32
	v15.68c0,0.48,0.26,0.9266,0.68,1.16L31.3668,55.18c0.2,0.1134,0.4267,0.1734,0.6534,0.1734c0.2266,0,0.4533-0.06,0.6533-0.1734
	l15.9933-9.0466c0.42-0.2334,0.68-0.68,0.68-1.16v-15.68c0-0.1134-0.02-0.22-0.04-0.32L49.2935,28.96z M40.0068,32.12l-2.78-1.5133
	l5.16-2.8867l2.8334,1.5534L40.0068,32.12z M31.9868,20.1334l-8.2533-4.6467l2.92-1.6333L34.9068,18.5L31.9868,20.1334z
	 M22.6668,17.9534l8,4.5v7.28l-8-4.4734V17.9534z M33.3335,22.44l8-4.4733V25.26l-8,4.4734v-7.3V22.44z M32.0002,10.8734
	l8.28,4.6333l-2.6467,1.48L29.3802,12.34L32.0002,10.8734z M21.5735,27.7734c0,0,0.0333-0.0267,0.0533-0.0334l9.7267,5.44
	c0.2,0.1134,0.4267,0.1667,0.6533,0.1667c0.2267,0,0.4467-0.0533,0.6534-0.1667l1.8266-1.02c0,0,0.0334,0.0267,0.0534,0.0334
	l2.6866,1.46l-5.22,2.8466l-13.2133-7.2l2.7867-1.52L21.5735,27.7734z M17.3335,31.5334L30.6668,38.8v12.92l-13.3333-7.5333V31.5334
	z M33.3402,51.7267V38.8l13.3266-7.2666v12.6533L33.3402,51.72V51.7267z"/>
</svg>
