<?xml version="1.0" encoding="utf-8"?>
<!-- Generator: Adobe Illustrator 28.0.0, SVG Export Plug-In . SVG Version: 6.00 Build 0)  -->
<svg version="1.1" id="Layer_1" xmlns="http://www.w3.org/2000/svg" xmlns:xlink="http://www.w3.org/1999/xlink" x="0px" y="0px"
	 viewBox="0 0 64 64" style="enable-background:new 0 0 64 64;" xml:space="preserve">
<style type="text/css">
	.st0{fill:#59B6F8;}
	.st1{fill:#232F3E;}
</style>
<path class="st0" d="M37.8,35.1734L36,25.3867h12v-9.3333c0-1.4733-1.1933-2.6667-2.6667-2.6667H26.6667
	c-1.4734,0-2.6667,1.1934-2.6667,2.6667v39.98c0,1.4733,1.1933,2.6667,2.6667,2.6667h14.6666c3.68,0,6.6667-2.9867,6.6667-6.6667
	V37.3667h-7.5733C39.1333,37.3667,38.0267,36.4467,37.8,35.1734z"/>
<path class="st1" d="M53.0137,24.4933c-0.2534-0.3-0.6267-0.4666-1.0134-0.4666h-6.6666V13.2933c0-3.1666-1.98-5.2933-4.9267-5.2933
	H23.5937c-2.7134,0-4.9267,2.3733-4.9267,5.2933V50.7c0,2.92,2.2067,5.2933,4.9267,5.2933H40.407
	c2.7133,0,4.9267-2.3733,4.9267-5.2933v-6.8867c0-0.7333-0.6-1.3333-1.3334-1.3333c-0.7333,0-1.3333,0.6-1.3333,1.3333V50.7
	c0,1.4467-1.0133,2.6267-2.26,2.6267H23.5937c-1.2467,0-2.26-1.18-2.26-2.6267V13.2933c0-1.4466,1.0133-2.6266,2.26-2.6266H40.407
	c1.4333,0,2.26,0.96,2.26,2.6266V24.02h-5.0533l-0.3-1.6c-0.12-0.6333-0.6667-1.0867-1.3134-1.0867h-2.6666
	c-0.7334,0-1.3334,0.6-1.3334,1.3334c0,0.7333,0.6,1.3333,1.3334,1.3333h1.56l1.7933,9.5867c0.12,0.64,0.68,1.0866,1.3067,1.0866
	c0.0333,0,0.0666-0.0066,0.1-0.0066c0.0333,0,0.06,0.0066,0.0866,0.0066H49.147c1.56,0,2.9133-1.1933,3.14-2.76l1.02-6.3533
	c0.06-0.3867-0.0467-0.78-0.3-1.0733L53.0137,24.4933z M49.6603,31.52c-0.04,0.28-0.26,0.4933-0.5066,0.4933H39.1003l-1-5.32H50.427
	L49.6537,31.52H49.6603z"/>
<path class="st1" d="M40.0003,40.0133c0.7364,0,1.3334-0.5969,1.3334-1.3333s-0.597-1.3333-1.3334-1.3333
	c-0.7364,0-1.3333,0.5969-1.3333,1.3333S39.2639,40.0133,40.0003,40.0133z"/>
<path class="st1" d="M48.0003,40.0133c0.7364,0,1.3334-0.5969,1.3334-1.3333s-0.597-1.3333-1.3334-1.3333
	c-0.7364,0-1.3333,0.5969-1.3333,1.3333S47.2639,40.0133,48.0003,40.0133z"/>
<path class="st1" d="M32.0003,16c0.7364,0,1.3334-0.5969,1.3334-1.3333c0-0.7364-0.597-1.3333-1.3334-1.3333
	c-0.7364,0-1.3333,0.5969-1.3333,1.3333C30.667,15.4031,31.2639,16,32.0003,16z"/>
<path class="st1" d="M26.667,49.3333c0,0.7334,0.6,1.3334,1.3333,1.3334h8c0.7334,0,1.3334-0.6,1.3334-1.3334
	c0-0.7333-0.6-1.3333-1.3334-1.3333h-8C27.267,48,26.667,48.6,26.667,49.3333z"/>
</svg>
