<?xml version="1.0" encoding="utf-8"?>
<!-- Generator: Adobe Illustrator 28.0.0, SVG Export Plug-In . SVG Version: 6.00 Build 0)  -->
<svg version="1.1" id="Layer_1" xmlns="http://www.w3.org/2000/svg" xmlns:xlink="http://www.w3.org/1999/xlink" x="0px" y="0px"
	 viewBox="0 0 64 64" style="enable-background:new 0 0 64 64;" xml:space="preserve">
<style type="text/css">
	.st0{fill:#59B6F8;}
	.st1{fill:#232F3E;}
</style>
<path class="st0" d="M52.6667,16H19.3333C17.4933,16,16,17.4933,16,19.3333v20c0,1.84,1.4933,3.3334,3.3333,3.3334h33.3334
	c1.84,0,3.3333-1.4934,3.3333-3.3334v-20C56,17.4933,54.5067,16,52.6667,16z M44.6667,27.3333H19.3333v-8h25.3334V27.3333z"/>
<path class="st1" d="M48.1613,10.6667h-32.32c-2.8533,0-5.1733,2.32-5.1733,5.1734v24.3133c0,2.8533,2.32,5.1733,5.1733,5.1733
	H26.348l-2.0667,5.3334h-4.28c-0.7333,0-1.3333,0.6-1.3333,1.3333s0.6,1.3333,1.3333,1.3333h24c0.7333,0,1.3333-0.6,1.3333-1.3333
	s-0.6-1.3333-1.3333-1.3333h-4.28l-2.0667-5.3334h10.5067c2.8533,0,5.1733-2.32,5.1733-5.1733V15.8401
	C53.3346,12.9867,51.0146,10.6667,48.1613,10.6667z M15.848,13.3334h32.3133c1.3867,0,2.5067,1.1267,2.5067,2.5067v21.4933H13.3346
	V15.8401c0-1.3867,1.1267-2.5067,2.5067-2.5067H15.848z M34.8413,45.4601l2.02,5.2066H27.148l2.02-5.2066
	c0.0133-0.04,0.02-0.0867,0.0333-0.1267h5.6067C34.8213,45.3734,34.828,45.4201,34.8413,45.4601z M48.1613,42.6667h-32.32
	c-1.3867,0-2.5067-1.1266-2.5067-2.5066v-0.16H50.668v0.16C50.668,41.5468,49.5413,42.6667,48.1613,42.6667z M18.0013,33.3334
	c0-0.7333,0.6-1.3333,1.3333-1.3333h4c0.7334,0,1.3334,0.6,1.3334,1.3333s-0.6,1.3333-1.3334,1.3333h-4
	C18.6013,34.6667,18.0013,34.0667,18.0013,33.3334z M35.3346,33.3334c0,0.7333-0.6,1.3333-1.3333,1.3333h-4
	c-0.7333,0-1.3333-0.6-1.3333-1.3333s0.6-1.3333,1.3333-1.3333h4C34.7346,32.0001,35.3346,32.6001,35.3346,33.3334z
	 M46.0013,33.3334c0,0.7333-0.6,1.3333-1.3333,1.3333h-4c-0.7334,0-1.3334-0.6-1.3334-1.3333s0.6-1.3333,1.3334-1.3333h4
	C45.4013,32.0001,46.0013,32.6001,46.0013,33.3334z"/>
<path class="st1" d="M44.6667,29.3335H19.3333c-0.7333,0-1.3333-0.6-1.3333-1.3333v-9.3334c0-0.7333,0.6-1.3333,1.3333-1.3333
	h25.3334c0.7333,0,1.3333,0.6,1.3333,1.3333v9.3334C46,28.7335,45.4,29.3335,44.6667,29.3335z M20.6667,26.6668h22.6666v-6.6666
	H20.6667V26.6668z"/>
</svg>
