<?xml version="1.0" encoding="utf-8"?>
<!-- Generator: Adobe Illustrator 28.0.0, SVG Export Plug-In . SVG Version: 6.00 Build 0)  -->
<svg version="1.1" id="Layer_1" xmlns="http://www.w3.org/2000/svg" xmlns:xlink="http://www.w3.org/1999/xlink" x="0px" y="0px"
	 viewBox="0 0 64 64" style="enable-background:new 0 0 64 64;" xml:space="preserve">
<style type="text/css">
	.st0{fill:#59B6F8;}
	.st1{fill:#232F3E;}
</style>
<path class="st0" d="M43.4132,44.2667c-0.5667,0.7267-1.34,1.2467-2.1934,1.4533l-3.8666,0.9467l-0.02-4.0133
	c0-0.88,0.3066-1.7734,0.8666-2.5l12.4667-16.1067v-6.6733c0-0.7334-0.6-1.3334-1.3333-1.3334H19.9998
	c-0.7333,0-1.3333,0.6-1.3333,1.3334v37.26c0,0.7333,0.6,1.3333,1.3333,1.3333h29.3334c0.7333,0,1.3333-0.6,1.3333-1.3333V34.8867
	L43.4132,44.26V44.2667z"/>
<path class="st1" d="M40,22.6666c0-0.7333-0.6-1.3333-1.3333-1.3333h-5.3334c-0.7333,0-1.3333,0.6-1.3333,1.3333
	c0,0.7333,0.6,1.3333,1.3333,1.3333h5.3334C39.4,23.9999,40,23.3999,40,22.6666z"/>
<path class="st1" d="M57.7135,23.7533L54.4802,21.2c-0.5267-0.4134-1.18-0.5934-1.86-0.5134
	c-0.7267,0.0867-1.4067,0.4867-1.8734,1.08L38.5935,37.4733l-1.44,1.8666c-0.7467,0.96-1.1533,2.1401-1.1467,3.3201l0.02,4.0133
	c0,0.4067,0.1934,0.7933,0.5134,1.0467c0.2333,0.1866,0.5266,0.28,0.82,0.28c0.1066,0,0.2133-0.0134,0.32-0.0401l3.86-0.9466
	c1.14-0.28,2.18-0.9667,2.9266-1.9333l0.8667-1.1201v6.6734H16.0002V13.3666h29.3333v6.5667c0,0.7333,0.6,1.3333,1.3333,1.3333
	c0.7334,0,1.3334-0.6,1.3334-1.3333v-7.9c0-0.7333-0.6-1.3333-1.3334-1.3333h-32c-0.7333,0-1.3333,0.6-1.3333,1.3333v39.9266
	c0,0.7334,0.6,1.3334,1.3333,1.3334h32c0.7334,0,1.3334-0.6,1.3334-1.3334V40.5066l10.06-13c0.92-1.1933,0.7666-2.88-0.3534-3.76
	L57.7135,23.7533z M40.9068,44.4266l-2.22,0.5467l-0.0133-2.32c0-0.5867,0.2067-1.18,0.5867-1.6734l0.6133-0.7933l3.1133,2.46
	l-0.6266,0.8133c-0.38,0.4934-0.8934,0.84-1.4534,0.9734V44.4266z M55.9602,25.88l-11.34,14.6533l-3.1134-2.46L52.8602,23.4
	c0,0,0.0333-0.04,0.0466-0.0467l3.0934,2.44C56.0002,25.7933,55.9802,25.8466,55.9602,25.88z"/>
<path class="st1" d="M28.9402,19.0599c-0.52-0.52-1.3666-0.52-1.8866,0l-3.06,3.06l-1.7267-1.7266c-0.52-0.52-1.3667-0.52-1.8867,0
	c-0.52,0.52-0.52,1.3666,0,1.8866l2.6667,2.6667c0.26,0.26,0.6,0.3933,0.94,0.3933s0.68-0.1333,0.94-0.3933l4-4
	c0.52-0.52,0.52-1.3667,0-1.8867H28.9402z"/>
<path class="st1" d="M33.3333,30.6666C32.6,30.6666,32,31.2666,32,32c0,0.7333,0.6,1.3333,1.3333,1.3333H36
	c0.7333,0,1.3333-0.6,1.3333-1.3333c0-0.7334-0.6-1.3334-1.3333-1.3334H33.3333z"/>
<path class="st1" d="M28.9402,28.3933c-0.52-0.52-1.3666-0.52-1.8866,0l-3.06,3.06l-1.7267-1.7267c-0.52-0.52-1.3667-0.52-1.8867,0
	c-0.52,0.52-0.52,1.3667,0,1.8867l2.6667,2.6667c0.26,0.26,0.6,0.3933,0.94,0.3933s0.68-0.1333,0.94-0.3933l4-4
	c0.52-0.52,0.52-1.3667,0-1.8867H28.9402z"/>
<path class="st1" d="M27.0604,37.7267l-3.06,3.06L22.2737,39.06c-0.52-0.52-1.3666-0.52-1.8866,0s-0.52,1.3667,0,1.8867
	l2.6666,2.6666c0.26,0.26,0.6,0.3934,0.94,0.3934s0.68-0.1334,0.94-0.3934l4-4c0.52-0.52,0.52-1.3666,0-1.8866
	c-0.52-0.52-1.3666-0.52-1.8866,0H27.0604z"/>
</svg>
