<?xml version="1.0" encoding="utf-8"?>
<!-- Generator: Adobe Illustrator 28.0.0, SVG Export Plug-In . SVG Version: 6.00 Build 0)  -->
<svg version="1.1" id="Layer_1" xmlns="http://www.w3.org/2000/svg" xmlns:xlink="http://www.w3.org/1999/xlink" x="0px" y="0px"
	 viewBox="0 0 64 64" style="enable-background:new 0 0 64 64;" xml:space="preserve">
<style type="text/css">
	.st0{fill:#59B6F8;}
	.st1{fill:#232F3E;}
</style>
<path class="st0" d="M58.6667,20v29.3067c0,0.7333-0.6,1.3333-1.3334,1.3333h-20c-0.78,0-1.7733,0.2333-2.68,0.6267
	c-1.08,0.46-2.3733,0.0266-2.7733-1.0734c-0.3267-0.9066-1.22-1.88-3.34-2.7466l-5.8733-0.8l1-2.0134L20,43.1533V20.0067
	c0-0.9534,0.9667-1.6,1.8467-1.2267l11.4866,5.9267v-2.0334c0-2.2066,1.7934-4,4-4h20c0.7334,0,1.3334,0.6,1.3334,1.3334V20z"/>
<path class="st1" d="M54.6667,13.3H36c-2.7,0-4.48,1.24-5.0933,3.46l-14.3934-6.02c-0.4133-0.1734-0.88-0.1267-1.2533,0.12
	c-0.3733,0.2466-0.5933,0.6666-0.5933,1.1133v1.3333H9.3333C8.6,13.3066,8,13.9066,8,14.64v31.9733
	c0,0.7333,0.6,1.3333,1.3333,1.3333H28c1.2867,0,2.6667,0.6467,2.6667,2.06c0,0.7334,0.6,1.3334,1.3333,1.3334
	s1.3333-0.6,1.3333-1.3334c0-1.4133,1.38-2.06,2.6667-2.06h18.6667c0.7333,0,1.3333-0.6,1.3333-1.3333v-31.98
	C56,13.9,55.4,13.3,54.6667,13.3z M10.6667,15.9666h4v25.5667c0,0.5467,0.3266,1.0333,0.8333,1.2333l6.1933,2.5067H10.6667V15.9666z
	 M29.0133,45.3533l-11.68-4.72v-26.66l13.3334,5.58v26.3133C30.1667,45.62,29.6133,45.4466,29.0133,45.3533z M53.3333,45.2733H36
	c-0.9867,0-1.8933,0.2133-2.6667,0.5933V18.6333c0-1.92,0.7467-2.6667,2.6667-2.6667h17.3333V45.2733z"/>
<path class="st1" d="M38.6668,23.94h9.3334c0.7333,0,1.3333-0.6,1.3333-1.3334c0-0.7333-0.6-1.3333-1.3333-1.3333h-9.3334
	c-0.7333,0-1.3333,0.6-1.3333,1.3333C37.3335,23.34,37.9335,23.94,38.6668,23.94z"/>
<path class="st1" d="M38.6668,29.2733h9.3334c0.7333,0,1.3333-0.6,1.3333-1.3333c0-0.7334-0.6-1.3334-1.3333-1.3334h-9.3334
	c-0.7333,0-1.3333,0.6-1.3333,1.3334C37.3335,28.6733,37.9335,29.2733,38.6668,29.2733z"/>
<path class="st1" d="M38.6668,34.6066h9.3334c0.7333,0,1.3333-0.6,1.3333-1.3333c0-0.7334-0.6-1.3334-1.3333-1.3334h-9.3334
	c-0.7333,0-1.3333,0.6-1.3333,1.3334C37.3335,34.0066,37.9335,34.6066,38.6668,34.6066z"/>
<path class="st1" d="M38.6668,39.94h9.3334c0.7333,0,1.3333-0.6,1.3333-1.3334c0-0.7333-0.6-1.3333-1.3333-1.3333h-9.3334
	c-0.7333,0-1.3333,0.6-1.3333,1.3333C37.3335,39.34,37.9335,39.94,38.6668,39.94z"/>
</svg>
