<?xml version="1.0" encoding="utf-8"?>
<!-- Generator: Adobe Illustrator 28.0.0, SVG Export Plug-In . SVG Version: 6.00 Build 0)  -->
<svg version="1.1" id="Layer_1" xmlns="http://www.w3.org/2000/svg" xmlns:xlink="http://www.w3.org/1999/xlink" x="0px" y="0px"
	 viewBox="0 0 64 64" style="enable-background:new 0 0 64 64;" xml:space="preserve">
<style type="text/css">
	.st0{fill:#59B6F8;}
	.st1{fill:#232F3E;}
</style>
<path class="st0" d="M19.0598,44.0867L29.7265,33.42c0.52-0.52,1.3667-0.52,1.8867,0l6.1333,6.1333
	c0.5133,0.5134,1.34,0.52,1.8667,0.02l14.14-13.5933c0.8466-0.8133,2.2533-0.2133,2.2533,0.96v27.7333
	c0,0.7334-0.5933,1.3334-1.3333,1.3334H19.9998c-0.7333,0-1.3333-0.5934-1.3333-1.3334v-9.64c0-0.3533,0.14-0.6933,0.3933-0.94
	V44.0867z"/>
<path class="st1" d="M53.3264,19.9266c0-0.04,0-0.0734-0.0133-0.1134c-0.0133-0.08-0.0333-0.16-0.06-0.24
	c-0.0067-0.0266-0.0133-0.06-0.02-0.0866c-0.02-0.0467-0.0533-0.08-0.0733-0.12c-0.0267-0.04-0.0467-0.0867-0.0734-0.1267
	c-0.04-0.06-0.0866-0.1133-0.14-0.1667l-0.0133-0.0133c-0.2467-0.2467-0.5733-0.4-0.9333-0.4h-8.1067
	c-0.7333,0-1.3333,0.6-1.3333,1.3333c0,0.7334,0.6,1.3334,1.3333,1.3334h4.8867L38.6664,31.4399l-7.06-7.06
	c-0.52-0.52-1.3666-0.52-1.8866,0L19.0531,35.0466c-0.52,0.52-0.52,1.3666,0,1.8866c0.26,0.26,0.6,0.3934,0.94,0.3934
	s0.68-0.1334,0.94-0.3934l9.7267-9.7266l7.06,7.06c0.52,0.52,1.3666,0.52,1.8866,0l11.06-11.06v4.88
	c0,0.7333,0.6,1.3333,1.3334,1.3333c0.7333,0,1.3333-0.6,1.3333-1.3333v-8.0867c0,0-0.0067-0.06-0.0067-0.0867V19.9266z"/>
<path class="st1" d="M51.9998,35.1c-0.7333,0-1.3333,0.6-1.3333,1.3333v14.2333H39.9998v-10c0-0.7333-0.6-1.3333-1.3333-1.3333
	s-1.3333,0.6-1.3333,1.3333v10H26.6665v-5c0-0.7333-0.6-1.3333-1.3333-1.3333c-0.7334,0-1.3334,0.6-1.3334,1.3333v5H13.3332V12
	c0-0.7334-0.6-1.3334-1.3334-1.3334c-0.7333,0-1.3333,0.6-1.3333,1.3334v40c0,0.7333,0.6,1.3333,1.3333,1.3333h40
	c0.7334,0,1.3334-0.6,1.3334-1.3333c0-0.0734-0.0134-0.1467-0.02-0.22c0.0133-0.0734,0.02-0.14,0.02-0.22V36.4266
	c0-0.7333-0.6-1.3333-1.3334-1.3333V35.1z"/>
</svg>
