<?xml version="1.0" encoding="utf-8"?>
<!-- Generator: Adobe Illustrator 28.0.0, SVG Export Plug-In . SVG Version: 6.00 Build 0)  -->
<svg version="1.1" id="Layer_1" xmlns="http://www.w3.org/2000/svg" xmlns:xlink="http://www.w3.org/1999/xlink" x="0px" y="0px"
	 viewBox="0 0 64 64" style="enable-background:new 0 0 64 64;" xml:space="preserve">
<style type="text/css">
	.st0{fill:#59B6F8;}
	.st1{fill:#232F3E;}
</style>
<path class="st0" d="M51.1267,50.4866c0.0533-0.0134,0.1-0.02,0.1533-0.0334c1.9733-0.4733,2.8267-2.8066,1.6333-4.4466
	L35.06,21.4532c-0.4933-0.6733-1.4733-0.7466-2.04-0.14c-0.8133,0.8667-2.1933,1.9667-4.3533,2.6867
	c-2.04,0.68-3.5734,0.78-4.46,0.7533c-0.5467-0.02-1.04,0.3067-1.2534,0.8134l-0.1266,0.3066c0,0-0.0334,0.0734-0.0467,0.1134
	l-6.58,20.64c0.2267-0.0467,0.4667-0.1,0.7067-0.1467c0.4933-0.0933,1.0133-0.18,1.56-0.2667
	c0.0266-0.0066,0.06-0.0066,0.0866-0.0133c0.2467-0.0333,0.5-0.0733,0.7534-0.1067c0.8666-0.12,1.7866-0.2266,2.76-0.32
	c0.3266-0.0266,0.66-0.06,0.9933-0.0866c0.3333-0.0267,0.68-0.0534,1.0267-0.08c0.34-0.0267,0.6866-0.0467,1.04-0.0734
	c0.72-0.04,1.4533-0.08,2.2066-0.1066c0.3734-0.0134,0.7534-0.0267,1.1334-0.04c1.1466-0.0334,2.3266-0.0534,3.5333-0.0534
	c11.0467,0,20,1.4934,20,3.3334c0,0.5666-0.8467,1.1-2.3467,1.5666c-3.5733-0.56-8.3733-0.9-13.6533-0.9
	c-11.0467,0-20,1.4934-20,3.3334s8.9533,3.3333,20,3.3333s20-1.4933,20-3.3333C56,51.8332,54.16,51.0732,51.1267,50.4866z
	 M34.5933,39.9866L30,37.5732l-4.5933,2.4134l0.88-5.1134l-3.72-3.62L27.7,30.5066l2.3-4.6534l2.3,4.6534l5.1333,0.7466l-3.72,3.62
	L34.5933,39.9866z"/>
<path class="st1" d="M11.5935,43.9401c0.1333,0.04,0.2733,0.0667,0.4067,0.0667c0.5666,0,1.0866-0.36,1.2666-0.9267l6.7734-21.2466
	c0.4133,0.2533,0.8733,0.4733,1.4,0.6466c0.9333,0.3134,1.9866,0.4667,3.1,0.4667c0.8066,0,1.64-0.08,2.48-0.2467
	c1.9933-0.3933,3.7933-1.2266,5.0733-2.3333c0.42-0.36,0.76-0.74,1.0467-1.1333l17.78,24.2266
	c0.26,0.3534,0.6666,0.5467,1.0733,0.5467c0.2733,0,0.5533-0.0867,0.7867-0.26c0.5933-0.4333,0.72-1.2667,0.2866-1.8667
	L33.8335,15.6668c-0.12-0.3867-0.3-0.74-0.54-1.0733l-3.0467-8.08c-0.0933-0.2467-0.26-0.46-0.4733-0.6133
	c-0.76-0.54-3.5-2.2267-7.0467-1.3667c-3.3666,0.82-5.0466,3.3867-5.48,4.16c-0.14,0.24-0.1933,0.52-0.1666,0.8l0.9533,8.74
	c-0.0267,0.32-0.0133,0.6333,0.0533,0.9533l-7.36,23.0733c-0.2266,0.7,0.1667,1.4534,0.8667,1.6734V43.9401z M30.3535,18.3535
	c-0.92,0.8-2.3267,1.4333-3.8467,1.7333c-1.52,0.3-3.06,0.2533-4.22-0.1333c-0.7466-0.2467-1.28-0.6267-1.4933-1.04l-0.0733-0.6667
	c0.26-1.12,2.1733-2.5667,4.8066-3.0867c0.66-0.1333,1.3267-0.1933,1.96-0.1933c0.8267,0,1.6067,0.1133,2.26,0.3267
	c0.5267,0.1733,0.9467,0.4133,1.2267,0.6866l0.3533,0.94C31.2535,17.3601,30.9135,17.8735,30.3535,18.3535z M23.3535,7.1335
	c2.0933-0.5067,3.82,0.3,4.5533,0.74l1.7534,4.6401c-1.4134-0.3-3.0334-0.3-4.66,0.0266c-1.8667,0.3734-3.48,1.1067-4.6867,2.04
	l-0.5333-4.9133C20.2735,8.9334,21.4002,7.6068,23.3535,7.1335z M38.6935,30.8468c-0.16-0.48-0.5733-0.8333-1.0733-0.9067
	l-4.44-0.6466l-1.9867-4.0267c-0.2267-0.4533-0.6867-0.74-1.1933-0.74c-0.5067,0-0.9734,0.2867-1.1934,0.74l-1.9866,4.0267
	l-4.44,0.6466c-0.5,0.0734-0.92,0.4267-1.0734,0.9067c-0.1533,0.48-0.0266,1.0133,0.34,1.3667l3.2134,3.1333l-0.76,4.4267
	c-0.0867,0.5,0.12,1.0066,0.5333,1.3066c0.4133,0.3,0.9533,0.34,1.4067,0.1l3.9733-2.0866l3.9733,2.0866
	c0.1934,0.1,0.4067,0.1534,0.62,0.1534c0.2734,0,0.5534-0.0867,0.7867-0.2534c0.4133-0.3,0.6133-0.8066,0.5333-1.3066l-0.76-4.4267
	l3.2134-3.1333c0.36-0.3534,0.4933-0.8867,0.34-1.3667H38.6935z M32.7802,33.9268c-0.3134,0.3067-0.46,0.7467-0.3867,1.18
	l0.42,2.4533l-2.2-1.16c-0.1933-0.1-0.4067-0.1533-0.62-0.1533s-0.4267,0.0533-0.62,0.1533l-2.2,1.16l0.42-2.4533
	c0.0733-0.4333-0.0667-0.8733-0.3867-1.18l-1.78-1.74l2.46-0.36c0.4334-0.06,0.8067-0.3333,1.0067-0.7267l1.1-2.2333l1.1,2.2333
	c0.1933,0.3934,0.5667,0.6667,1.0067,0.7267l2.46,0.36L32.7802,33.9268z M46.3535,45.0001c-3.8467-0.64-8.9467-0.9933-14.36-0.9933
	s-10.5133,0.3533-14.36,0.9933c-4.8867,0.8134-6.9733,1.9134-6.9733,3.6734s2.0866,2.86,6.9733,3.6733
	c3.8467,0.64,8.9467,0.9933,14.36,0.9933s10.5133-0.3533,14.36-0.9933c4.8867-0.8133,6.9733-1.9133,6.9733-3.6733
	S51.2402,45.8135,46.3535,45.0001z M31.9935,50.6735c-9.9067,0-16.0667-1.16-18.1067-2c2.04-0.84,8.2-2,18.1067-2
	s16.0667,1.16,18.1067,2C48.0602,49.5135,41.9002,50.6735,31.9935,50.6735z"/>
</svg>
