<?xml version="1.0" encoding="utf-8"?>
<!-- Generator: Adobe Illustrator 28.0.0, SVG Export Plug-In . SVG Version: 6.00 Build 0)  -->
<svg version="1.1" id="Layer_1" xmlns="http://www.w3.org/2000/svg" xmlns:xlink="http://www.w3.org/1999/xlink" x="0px" y="0px"
	 viewBox="0 0 64 64" style="enable-background:new 0 0 64 64;" xml:space="preserve">
<style type="text/css">
	.st0{fill:#59B6F8;}
	.st1{fill:#232F3E;}
</style>
<path class="st0" d="M50.6667,35.3333c-0.7334,0-1.3334-0.6-1.3334-1.3334v-5.3333c0-0.2467,0.0734-0.4667,0.1867-0.6667h-2.8533v-4
	c0-1.4733-1.1934-2.6666-2.6667-2.6666H18.6667c-1.4734,0-2.6667,1.1933-2.6667,2.6666v20c0,1.4734,1.1933,2.6667,2.6667,2.6667h40
	c1.4733,0,2.6666-1.1933,2.6666-2.6667v-8.6666H50.6667z"/>
<g>
	<path class="st1" d="M54.628,22.6667h-0.0067h-9.2867v-5.3334c0-0.7333-0.6-1.3333-1.3333-1.3333h-32
		c-0.7333,0-1.3333,0.6-1.3333,1.3333V24c0,0.7333,0.6,1.3333,1.3333,1.3333c0.7333,0,1.3333-0.6,1.3333-1.3333v-5.3333H42.668
		v22.6666H25.1613c-0.6-2.3333-2.7133-4-5.16-4c-2.4467,0-4.5667,1.6667-5.16,4h-1.5067V40c0-0.7333-0.6-1.3333-1.3333-1.3333
		c-0.7333,0-1.3333,0.6-1.3333,1.3333v2.6667C10.668,43.4,11.268,44,12.0013,44h2.84c0.5933,2.3,2.68,4,5.16,4
		c2.48,0,4.5667-1.7067,5.16-4h21.02c0.5933,2.2933,2.6801,4,5.16,4s4.5733-1.7133,5.16-4.02c0.0533,0.0067,0.1133,0.02,0.1733,0.02
		h2c0.7334,0,1.3334-0.6,1.3334-1.3333v-14.66C60.008,25.06,57.5946,22.6667,54.628,22.6667z M22.668,42.66v0.0067
		c0,1.4733-1.1934,2.6666-2.6667,2.6666c-1.4733,0-2.6667-1.1933-2.6667-2.7133c0-0.1467,0.0134-0.2933,0.0467-0.46
		c0.24-1.2533,1.34-2.16,2.62-2.16c1.28,0,2.38,0.9067,2.62,2.1667c0.0333,0.16,0.0468,0.3066,0.0468,0.4466V42.66z M54.0013,42.66
		v0.0067c0,1.4733-1.1933,2.6666-2.6667,2.6666c-1.4733,0-2.6666-1.1933-2.6666-2.7133c0-0.1467,0.0132-0.2933,0.0466-0.46
		c0.24-1.2533,1.34-2.16,2.62-2.16c1.28,0,2.38,0.9067,2.62,2.1667c0.0334,0.16,0.0467,0.3066,0.0467,0.4466V42.66z
		 M57.3346,41.3333H56.668c-0.06,0-0.1134,0.0067-0.1734,0.02c-0.5933-2.3466-2.7133-4.02-5.16-4.02c-2.4466,0-4.5666,1.6667-5.16,4
		h-0.84v-16h9.2867c1.26,0,2.3067,0.8534,2.6133,2H50.668c-0.7334,0-1.3334,0.6-1.3334,1.3334V34c0,0.7333,0.6,1.3333,1.3334,1.3333
		h6.6666V41.3333z M57.3346,32.6667h-5.3333V30h5.3333V32.6667z"/>
	<path class="st1" d="M13.3333,34.6666c0-0.7333-0.6-1.3333-1.3333-1.3333H7.3333C6.6,33.3333,6,33.9333,6,34.6666
		c0,0.7333,0.6,1.3333,1.3333,1.3333H12C12.7333,35.9999,13.3333,35.3999,13.3333,34.6666z"/>
	<path class="st1" d="M10.668,29.3333C10.668,28.6,10.068,28,9.3347,28H4.0013c-0.7333,0-1.3333,0.6-1.3333,1.3333
		c0,0.7334,0.6,1.3334,1.3333,1.3334h5.3334C10.068,30.6667,10.668,30.0667,10.668,29.3333z"/>
</g>
</svg>
